<svg width="20" height="21" viewBox="0 0 20 21" fill="none" xmlns="http://www.w3.org/2000/svg">
<g id="Call">
<path id="Call_2" d="M16.1668 12.8797C15.4951 12.7352 14.9637 13.0471 14.4932 13.3194C14.0114 13.6001 13.0951 14.3434 12.57 14.1531C9.88108 13.046 7.35213 10.6925 6.25739 7.99286C6.06444 7.45647 6.80424 6.5344 7.08283 6.04686C7.35316 5.57492 7.65858 5.03852 7.51928 4.36178C7.3934 3.75366 5.76522 1.68188 5.18947 1.11533C4.80977 0.741101 4.42078 0.535274 4.02147 0.502009C2.5202 0.437558 0.843516 2.44073 0.549452 2.91996C-0.187255 3.94181 -0.183128 5.30152 0.561834 6.95021C2.35717 11.3786 9.14747 18.0618 13.5925 19.9246C14.4128 20.3082 15.1629 20.5005 15.8366 20.5005C16.496 20.5005 17.0831 20.3165 17.5876 19.9516C17.9684 19.7323 20.0536 17.9724 19.9989 16.4307C19.9659 16.0378 19.7606 15.6448 19.3912 15.2644C18.8289 14.6833 16.7704 13.0065 16.1668 12.8797Z" fill="#A3A3A3"/>
</g>
</svg>
