<svg width="165" height="158" viewBox="0 0 165 158" fill="none" xmlns="http://www.w3.org/2000/svg">
<path id="Vector" fill-rule="evenodd" clip-rule="evenodd" d="M10.1759 53.9784C18.1326 38.9289 35.1145 32.5391 49.5253 23.536C62.1441 15.6525 74.2439 7.67077 88.8276 4.84143C105.668 1.57426 125.642 -4.59827 138.981 6.18091C152.367 16.9975 146.482 38.5852 151.145 55.1979C155.312 70.0395 165.044 82.7584 164.809 98.1865C164.518 117.306 164.805 140.432 149.672 152.081C134.534 163.733 112.926 153.957 93.9126 152.759C77.1939 151.705 60.4953 152.838 45.432 145.511C28.5657 137.307 11.0197 126.702 4.25962 109.152C-2.54512 91.4853 1.31424 70.7394 10.1759 53.9784Z" fill="#F2FFEC"/>
</svg>
