<svg width="16" height="17" viewBox="0 0 16 17" fill="none" xmlns="http://www.w3.org/2000/svg">
<g id="Group 747">
<g id="Group">
<path id="Vector" d="M1.9972 0.777832C5.77659 0.777832 9.55637 0.777832 13.3358 0.777832C13.3582 0.787174 13.3799 0.801374 13.4034 0.805111C14.5089 0.984477 15.3026 1.89775 15.3034 3.00907C15.306 6.61434 15.3064 10.2196 15.3034 13.8245C15.3023 15.0584 14.3097 16.0512 13.0757 16.0524C9.47004 16.0554 5.86442 16.0595 2.25917 16.0494C1.33011 16.0468 0.652191 15.5916 0.242971 14.7606C0.139825 14.5506 0.0979687 14.3106 0.02771 14.0846C0.02771 10.3055 0.02771 6.52615 0.02771 2.74712C0.0370529 2.72433 0.0508804 2.70266 0.0549913 2.67912C0.188782 1.88579 0.623788 1.31668 1.34917 0.979245C1.55247 0.885078 1.78044 0.8436 1.9972 0.777832ZM7.55698 4.36516C5.23358 4.45036 3.44946 6.47757 3.69649 8.81905C3.91623 10.9031 5.78893 12.6227 8.12578 12.3851C10.2033 12.1736 11.9362 10.3022 11.6951 7.96071C11.478 5.85577 9.6569 4.29416 7.55698 4.36516ZM13.5129 3.93169C13.5021 3.22955 13.0095 2.59952 12.1967 2.57598C11.5046 2.55617 10.8633 3.06176 10.8375 3.88236C10.815 4.58787 11.3364 5.22799 12.1548 5.24555C12.8653 5.26087 13.4677 4.73697 13.5129 3.93169Z" fill="#2C2C2C"/>
<path id="Vector_2" d="M7.70283 5.25391C9.43389 5.25653 10.8346 6.66605 10.829 8.39992C10.8234 10.1241 9.41707 11.5209 7.69013 11.5183C5.95907 11.5157 4.55838 10.1061 4.56398 8.37227C4.56959 6.64811 5.97589 5.25129 7.70283 5.25391Z" fill="#2C2C2C"/>
<path id="Vector_3" d="M12.1694 4.35734C11.9175 4.35622 11.7213 4.15406 11.7258 3.90033C11.7299 3.65557 11.9283 3.46275 12.1754 3.46387C12.4272 3.46499 12.6234 3.66715 12.619 3.92088C12.6148 4.16564 12.416 4.35846 12.1694 4.35734Z" fill="#2C2C2C"/>
</g>
</g>
</svg>
