<svg width="20" height="19" viewBox="0 0 20 19" fill="none" xmlns="http://www.w3.org/2000/svg">
<g id="Message">
<path id="Message_2" fill-rule="evenodd" clip-rule="evenodd" d="M14.939 0.5C16.28 0.5 17.57 1.03 18.519 1.981C19.469 2.93 20 4.21 20 5.55V13.45C20 16.24 17.73 18.5 14.939 18.5H5.06C2.269 18.5 0 16.24 0 13.45V5.55C0 2.76 2.259 0.5 5.06 0.5H14.939ZM16.53 7.04L16.61 6.96C16.849 6.67 16.849 6.25 16.599 5.96C16.46 5.811 16.269 5.72 16.07 5.7C15.86 5.689 15.66 5.76 15.509 5.9L11 9.5C10.42 9.981 9.589 9.981 9 9.5L4.5 5.9C4.189 5.67 3.759 5.7 3.5 5.97C3.23 6.24 3.2 6.67 3.429 6.97L3.56 7.1L8.11 10.65C8.67 11.09 9.349 11.33 10.06 11.33C10.769 11.33 11.46 11.09 12.019 10.65L16.53 7.04Z" fill="#A3A3A3"/>
</g>
</svg>
